# xmcd CD database file
#
# Track frame offsets:
#	150
#	16466
#	35239
#	47643
#	65039
#	86667
#	109604
#	126542
#	142362
#	160583
#	179418
#	200418
#	215888
#	234102
#	254158
#	271625
#	281052
#
# Disc length: 3968 seconds
#
# Revision: 0
# Processed by: cddbd v1.5.2PL0 Copyright (c) Steve Scherf et al.
# Submitted via: CDex 1.70beta2
#
DISCID=0d0f7e11
DTITLE=Shanghai Old Paramount Jazz Band - Paramount Jazz Of Shanghai [Disc 1]
DYEAR=1900
DGENRE=Jazz
TTITLE0=Begin the Beguine
TTITLE1=Shangri-La
TTITLE2=Hawaii Paradise
TTITLE3=Rum and Coca Cola
TTITLE4=Smoke Gets In Your Eye
TTITLE5=Shanghai At Night
TTITLE6=The Last Waltz
TTITLE7=Evening Primrose
TTITLE8=As Time Goes By
TTITLE9=Money Honey
TTITLE10=Rose, Rose, I Love You
TTITLE11=Amor Amor
TTITLE12=Sleepy Lagoon
TTITLE13=Rosebush In Blossom
TTITLE14=Boogie Woogie
TTITLE15=Hawaii Sunrise
TTITLE16=In The Mood
EXTD=
EXTT0=
EXTT1=
EXTT2=
EXTT3=
EXTT4=
EXTT5=
EXTT6=
EXTT7=
EXTT8=
EXTT9=
EXTT10=
EXTT11=
EXTT12=
EXTT13=
EXTT14=
EXTT15=
EXTT16=
PLAYORDER=
